<svg id="iw_PartnerAwards_ag" data-name="iw PartnerAwards ag" xmlns="http://www.w3.org/2000/svg" xmlns:xlink="http://www.w3.org/1999/xlink" viewBox="0 0 400 400"><defs><style>.cls-1{fill:none;}.cls-2{fill:#ffb200;}.cls-3{fill:url(#Unbenannter_Verlauf);}.cls-4{fill:#fff;}.cls-5{clip-path:url(#clip-path);}.cls-6{fill:#2d2d2d;}.cls-7{fill:#f9b115;}</style><linearGradient id="Unbenannter_Verlauf" x1="261.35" y1="766" x2="261.35" y2="366" gradientTransform="translate(0 -366)" gradientUnits="userSpaceOnUse"><stop offset="0" stop-color="#fff" stop-opacity="0"/><stop offset="1" stop-color="#fff" stop-opacity="0.3"/></linearGradient><clipPath id="clip-path"><rect class="cls-1" x="50.5" y="157.92" width="206" height="45.24"/></clipPath></defs><polyline id="_Pfad_" data-name=" Pfad " class="cls-2" points="400 400 0 400 0 0 400 0 400 400"/><polyline class="cls-3" points="400 400 122.7 400 317.8 0 400 0 400 400"/><path class="cls-4" d="M57.93,331.49v17.87H50.58v-45.5H68.23c10.5,0,16.12,5.3,16.12,13.81s-5.62,13.82-16.12,13.82Zm0-20.71v13.78H68c6,0,8.68-2.21,8.68-6.89S74,310.78,68,310.78Z"/><path class="cls-4" d="M120.39,349.36H113.6v-3.74a11.79,11.79,0,0,1-9.78,4.55c-8.71,0-15.57-6.85-15.57-16.38s6.86-16.38,15.57-16.38A11.82,11.82,0,0,1,113.6,322v-3.77h6.79ZM95.24,333.79c0,5.46,3.54,10,9.39,10,5.62,0,9.39-4.29,9.39-10s-3.77-10-9.39-10C98.78,323.82,95.24,328.33,95.24,333.79Z"/><path class="cls-4" d="M150.75,318.29,149.12,325a12.09,12.09,0,0,0-5.17-1.14c-4.32,0-7.41,3.06-7.41,8.35v17.13h-6.79V318.23h6.73v3.51c2.05-3,5.23-4.33,9-4.33A13.58,13.58,0,0,1,150.75,318.29Z"/><path class="cls-4" d="M178.24,324.4H166.31V338c0,4.2,2.21,5.82,4.94,5.82a12.5,12.5,0,0,0,6.28-2.11l2.69,5.43a16.79,16.79,0,0,1-9.55,3.08c-7.06,0-11.18-3.8-11.18-12.09V324.4h-6.21v-6.17h6.21V308.8h6.82v9.43h11.93Z"/><path class="cls-4" d="M214.18,329.8v19.56h-6.82V332c0-5.23-2.7-8.16-7.25-8.16-4.39,0-8.06,2.89-8.06,8.22v17.26h-6.82V318.23H192V322a11.05,11.05,0,0,1,9.55-4.62C209,317.41,214.18,322.52,214.18,329.8Z"/><path class="cls-4" d="M251.2,333.76c0,.88-.06,1.76-.13,2.54h-23c.91,5.59,4.84,7.93,9.26,7.93a14.9,14.9,0,0,0,9-3.29l3.38,4.85a18.78,18.78,0,0,1-12.81,4.38c-9.33,0-15.92-6.5-15.92-16.38s6.33-16.38,15.5-16.38C245.19,317.41,251.17,324,251.2,333.76Zm-23.11-2.63h16.16c-.75-4.84-3.58-7.67-7.9-7.67C231.51,323.46,228.81,326.58,228.09,331.13Z"/><path class="cls-4" d="M279.31,318.29,277.69,325a12.09,12.09,0,0,0-5.17-1.14c-4.32,0-7.41,3.06-7.41,8.35v17.13h-6.79V318.23H265v3.51c2-3,5.24-4.33,9-4.33A13.52,13.52,0,0,1,279.31,318.29Z"/><path class="cls-4" d="M57.83,275.75H50.48v-45.5h7.35Z"/><path class="cls-4" d="M119.13,256.18v19.57H112.3V258.43c0-5.24-2.7-8.16-7.25-8.16-4.38,0-8.06,2.89-8.06,8.22v17.26H90.17V258.43c0-5.24-2.7-8.16-7.25-8.16-4.39,0-8.06,2.89-8.06,8.22v17.26H68V244.61h6.76v3.81c2.51-3.68,6.38-4.62,9.56-4.62a12.26,12.26,0,0,1,10.76,5.56c2.7-4.45,7.51-5.56,11.37-5.56C113.89,243.8,119.13,248.9,119.13,256.18Z"/><path class="cls-4" d="M179.25,256.18v19.57h-6.83V258.43c0-5.24-2.69-8.16-7.24-8.16-4.39,0-8.06,2.89-8.06,8.22v17.26h-6.83V258.43c0-5.24-2.7-8.16-7.25-8.16-4.38,0-8.06,2.89-8.06,8.22v17.26h-6.82V244.61h6.76v3.81c2.5-3.68,6.37-4.62,9.55-4.62a12.25,12.25,0,0,1,10.76,5.56c2.7-4.45,7.51-5.56,11.38-5.56C174,243.8,179.25,248.9,179.25,256.18Z"/><path class="cls-4" d="M219.55,260.18c0,9.33-7.15,16.38-16.77,16.38S186,269.51,186,260.18s7.12-16.38,16.74-16.38S219.55,250.85,219.55,260.18Zm-26.52,0c0,5.88,4.19,10,9.75,10a10,10,0,0,0,0-20C197.22,250.2,193,254.3,193,260.18Z"/><path class="cls-4" d="M260.17,268.4l7.35-23.79h7.08l-10.3,31.14h-8.13l-7.7-23.47-7.7,23.47h-8l-10.3-31.14h7.25L237,268.27l7.67-23.66h7.71Z"/><path class="cls-4" d="M307.75,260.15c0,.88-.06,1.75-.13,2.53h-23c.91,5.59,4.84,7.93,9.26,7.93a14.89,14.89,0,0,0,9-3.28l3.38,4.84a18.79,18.79,0,0,1-12.81,4.39c-9.33,0-15.92-6.5-15.92-16.38s6.33-16.38,15.5-16.38C301.74,243.8,307.72,250.43,307.75,260.15Zm-23.11-2.63H300.8c-.75-4.85-3.58-7.67-7.9-7.67C288.06,249.85,285.36,253,284.64,257.52Z"/><path class="cls-4" d="M321.69,275.75h-6.82V229h6.82Z"/><path class="cls-4" d="M352.28,250.79H340.35v13.55c0,4.19,2.21,5.82,4.94,5.82a12.46,12.46,0,0,0,6.27-2.11l2.7,5.42a16.83,16.83,0,0,1-9.56,3.09c-7.05,0-11.18-3.8-11.18-12.09V250.79h-6.2v-6.18h6.2v-9.42h6.83v9.42h11.93Z"/><g class="cls-5"><path class="cls-6" d="M249.88,164.37a23.65,23.65,0,0,0-16.62-6.45H73.69a23.5,23.5,0,0,0-16.6,6.45,23.13,23.13,0,0,0,0,32.34,23.52,23.52,0,0,0,16.6,6.45H233.26a23.65,23.65,0,0,0,16.62-6.45,23.06,23.06,0,0,0,0-32.34Z"/></g><path class="cls-7" d="M248.47,165.67a21.76,21.76,0,0,0-15.26-5.93H151.64a22.63,22.63,0,0,1,0,41.59h81.57a21.71,21.71,0,0,0,15.26-5.93,21.2,21.2,0,0,0,0-29.74Z"/><polygon class="cls-6" points="188.49 185.49 192.22 173.29 197.12 173.29 191.23 190.68 185.88 190.68 182.02 178.92 178.2 190.68 172.89 190.68 167 173.29 171.99 173.29 175.71 185.44 179.6 173.29 184.54 173.29 188.49 185.49 188.49 185.49"/><path class="cls-6" d="M202.52,180.34h7.7c-.43-2.22-1.78-3.48-3.79-3.48-2.21,0-3.5,1.33-3.91,3.48Zm12.4,1.62a12.26,12.26,0,0,1-.09,1.58H202.5a4.2,4.2,0,0,0,4.47,3.61,7,7,0,0,0,4.4-1.67l2.74,3a10.55,10.55,0,0,1-7.41,2.64c-5.33,0-9-3.63-9-9.1s3.59-9.21,8.8-9.21c5,0,8.43,3.72,8.45,9.14Z"/><polygon class="cls-6" points="221.99 190.67 217.31 190.67 217.31 166.7 221.99 166.7 221.99 190.67 221.99 190.67"/><path class="cls-6" d="M238.59,177.45h-6.3v6.36c0,2.17,1.15,3,2.6,3a6.86,6.86,0,0,0,3.27-1.13l1.72,3.66a9.74,9.74,0,0,1-5.76,1.83c-4.31,0-6.52-2.44-6.52-6.95v-6.73h-3.35v-4.16h3.35v-5.17h4.69v5.17h6.3v4.16Z"/><path class="cls-4" d="M72.67,190.68H68V173.29h4.68v17.39Zm.63-23.08a3,3,0,1,1-3-3,3,3,0,0,1,3,3Z"/><path class="cls-4" d="M105.68,179.61v11.07H101v-9.57c0-2.51-1.27-3.89-3.39-3.89a3.57,3.57,0,0,0-3.68,3.93v9.53H89.26v-9.57c0-2.51-1.26-3.89-3.4-3.89a3.57,3.57,0,0,0-3.68,3.93v9.53H77.5V173.29h4.56v2a5.84,5.84,0,0,1,5.11-2.51,6.59,6.59,0,0,1,5.75,3,7,7,0,0,1,12.76,3.81Z"/><path class="cls-4" d="M138.58,179.61v11.07h-4.67v-9.57c0-2.51-1.27-3.89-3.39-3.89a3.57,3.57,0,0,0-3.68,3.93v9.53h-4.68v-9.57c0-2.51-1.26-3.89-3.4-3.89a3.57,3.57,0,0,0-3.68,3.93v9.53H110.4V173.29H115v2a5.84,5.84,0,0,1,5.11-2.51,6.59,6.59,0,0,1,5.75,3,7,7,0,0,1,12.76,3.81Z"/><path class="cls-4" d="M147,182a4.63,4.63,0,1,0,4.62-4.8A4.55,4.55,0,0,0,147,182Zm14,0a9.41,9.41,0,1,1-9.42-9.16,9,9,0,0,1,9.42,9.16Z"/></svg>